IKResults
version=1
nRows=22
nColumns=24
inDegrees=yes

Units are S.I. units (second, meters, Newtons, ...)
Angles are in degrees.

endheader
time	pelvis_tilt	pelvis_list	pelvis_rotation	pelvis_tx	pelvis_ty	pelvis_tz	hip_flexion_r	hip_adduction_r	hip_rotation_r	knee_angle_r	ankle_angle_r	subtalar_angle_r	mtp_angle_r	hip_flexion_l	hip_adduction_l	hip_rotation_l	knee_angle_l	ankle_angle_l	subtalar_angle_l	mtp_angle_l	lumbar_extension	lumbar_bending	lumbar_rotation
      0.00000000	    -82.57260616	    121.09233266	     87.07642121	     -0.59372318	      0.10681805	      1.06320986	    -41.58714652	     -1.12949513	    -22.91229227	      2.92900188	     10.14111676	     17.11695919	      0.00000000	    -40.21628361	     -0.04533163	    -13.11329810	      2.28837350	      7.66306640	     12.91648351	      0.00000000	    -37.63015524	     -2.46049541	     -0.00875657
      0.02000000	    -82.57715735	    121.08513086	     87.08076377	     -0.59373646	      0.10688665	      1.06319709	    -41.58689440	     -1.13238032	    -22.89916377	      2.94342275	     10.12661500	     17.13241644	      0.00000000	    -40.22146663	     -0.04291949	    -13.09449572	      2.31135416	      7.65234037	     12.91325858	      0.00000000	    -37.62255128	     -2.46254811	     -0.02325030
      0.04000000	    -82.57765741	    121.08503209	     87.08381153	     -0.59377521	      0.10693788	      1.06319702	    -41.58655457	     -1.13453932	    -22.89937589	      2.94514389	     10.12647438	     17.13256465	      0.00000000	    -40.22093371	     -0.04196438	    -13.09379087	      2.31239248	      7.65171694	     12.91298131	      0.00000000	    -37.62294498	     -2.46499467	     -0.02359128
      0.06000000	    -82.59283753	    121.08837046	     87.10426055	     -0.59378828	      0.10700243	      1.06321062	    -41.59990393	     -1.12449843	    -22.90617812	      2.96578282	     10.09294416	     17.15029676	      0.00000000	    -40.25067869	     -0.04547261	    -12.98233824	      2.36386932	      7.58380633	     12.75030963	      0.00000000	    -37.62397600	     -2.45510396	     -0.03853440
      0.08000000	    -82.59535834	    121.08853651	     87.10479847	     -0.59382287	      0.10702387	      1.06321353	    -41.59857776	     -1.12531835	    -22.90653122	      2.96772385	     10.09415664	     17.15018865	      0.00000000	    -40.25139577	     -0.04450613	    -12.98027031	      2.36804808	      7.58302965	     12.75120650	      0.00000000	    -37.62191941	     -2.46015061	     -0.04044864
      0.10000000	    -82.59724451	    121.08320921	     87.10333217	     -0.59381682	      0.10705798	      1.06320509	    -41.59386993	     -1.12755477	    -22.90660035	      2.97055480	     10.08936626	     17.15203680	      0.00000000	    -40.25777830	     -0.04016795	    -12.97534515	      2.39058640	      7.58131704	     12.75509067	      0.00000000	    -37.60820545	     -2.46240180	     -0.04718939
      0.12000000	    -82.60003302	    121.08284115	     87.10395363	     -0.59382178	      0.10707433	      1.06319805	    -41.59273177	     -1.12758791	    -22.90627752	      2.97093357	     10.08515157	     17.15394813	      0.00000000	    -40.25896055	     -0.03967468	    -12.97488107	      2.39330084	      7.58164907	     12.75556906	      0.00000000	    -37.60182355	     -2.46944099	     -0.04938679
      0.14000000	    -82.60627942	    121.06844478	     87.10395645	     -0.59378873	      0.10712459	      1.06317855	    -41.58122495	     -1.13163610	    -22.90167799	      2.97662810	     10.06450514	     17.16917140	      0.00000000	    -40.25664763	     -0.03352615	    -12.97870462	      2.41232137	      7.58624573	     12.75721776	      0.00000000	    -37.57947465	     -2.47168103	     -0.06124694
      0.16000000	    -82.61079394	    121.06682221	     87.10635638	     -0.59377533	      0.10715570	      1.06317680	    -41.58071938	     -1.13295390	    -22.90213478	      2.97637362	     10.06494240	     17.17120916	      0.00000000	    -40.25642394	     -0.03334493	    -12.97885125	      2.41029380	      7.58494215	     12.75735198	      0.00000000	    -37.57214278	     -2.47798200	     -0.06294245
      0.18000000	    -82.62933758	    121.03114857	     87.11375101	     -0.59368877	      0.10722165	      1.06314460	    -41.55134154	     -1.13420103	    -22.89547537	      2.98389649	     10.08466422	     17.20566797	      0.00000000	    -40.23585618	     -0.03017864	    -12.99437091	      2.43146979	      7.58218734	     12.75476054	      0.00000000	    -37.52224550	     -2.47447059	     -0.07790628
      0.20000000	    -82.63344017	    121.03115917	     87.11606612	     -0.59366793	      0.10729274	      1.06315291	    -41.55277741	     -1.13922623	    -22.89783499	      2.98167143	     10.08638497	     17.20598995	      0.00000000	    -40.23530345	     -0.02740671	    -12.99213081	      2.42566976	      7.58184928	     12.75588942	      0.00000000	    -37.51384783	     -2.47456976	     -0.07556750
      0.22000000	    -82.63752725	    121.03181330	     87.11828448	     -0.59362412	      0.10736405	      1.06315891	    -41.55706889	     -1.14323742	    -22.89969940	      2.98046672	     10.08915934	     17.20563481	      0.00000000	    -40.23710171	     -0.02405955	    -12.99013892	      2.42032111	      7.58291964	     12.75637509	      0.00000000	    -37.50260942	     -2.47507126	     -0.07450411
      0.24000000	    -82.64255970	    121.03288957	     87.12011427	     -0.59355774	      0.10743223	      1.06315878	    -41.56269879	     -1.14676851	    -22.90142548	      2.97990537	     10.09329394	     17.20505915	      0.00000000	    -40.24142150	     -0.02069242	    -12.98795523	      2.41481967	      7.58694618	     12.75552783	      0.00000000	    -37.48811518	     -2.47644566	     -0.07415374
      0.26000000	    -82.65189403	    121.03053884	     87.12247608	     -0.59344725	      0.10749710	      1.06313499	    -41.57100692	     -1.14907882	    -22.89713928	      2.98664655	     10.10840665	     17.20894288	      0.00000000	    -40.24984377	     -0.01611093	    -12.98407343	      2.41678046	      7.61983708	     12.73921152	      0.00000000	    -37.46493306	     -2.47803869	     -0.07523508
      0.28000000	    -82.65769098	    121.03409740	     87.12251549	     -0.59337470	      0.10755397	      1.06312839	    -41.57713577	     -1.15324066	    -22.89706935	      2.98237536	     10.10749026	     17.20857621	      0.00000000	    -40.25449149	     -0.01368301	    -12.98139564	      2.40725918	      7.62018713	     12.73798792	      0.00000000	    -37.45209673	     -2.47981571	     -0.07626526
      0.30000000	    -82.66908849	    121.04080539	     87.11487776	     -0.59329601	      0.10760544	      1.06311148	    -41.59045738	     -1.16190018	    -22.87917220	      2.98767268	     10.10262678	     17.21247185	      0.00000000	    -40.25700453	     -0.00392287	    -12.98744964	      2.38083454	      7.65582155	     12.70912839	      0.00000000	    -37.44326693	     -2.48411299	     -0.07368050
      0.32000000	    -82.67527382	    121.04454311	     87.11323470	     -0.59319890	      0.10767237	      1.06310318	    -41.59928088	     -1.16662525	    -22.87904269	      2.98430477	     10.10246914	     17.21041207	      0.00000000	    -40.26215891	      0.00072257	    -12.98565890	      2.36824141	      7.65706479	     12.70833113	      0.00000000	    -37.42867943	     -2.48362251	     -0.07215324
      0.34000000	    -82.68259433	    121.05235501	     87.10122080	     -0.59310009	      0.10772342	      1.06309326	    -41.62049077	     -1.17680238	    -22.85992584	      2.99998429	     10.10009500	     17.20150427	      0.00000000	    -40.26681986	      0.01362927	    -13.00338787	      2.33973969	      7.69925785	     12.69307758	      0.00000000	    -37.41821301	     -2.49140646	     -0.04501586
      0.36000000	    -82.68738705	    121.05549182	     87.10117062	     -0.59301021	      0.10778249	      1.06309792	    -41.62681029	     -1.18217642	    -22.85877033	      2.99401793	     10.09779392	     17.19890398	      0.00000000	    -40.27447053	      0.01676361	    -13.00191739	      2.33208471	      7.69908998	     12.69482348	      0.00000000	    -37.40402311	     -2.49230485	     -0.04380405
      0.38000000	    -82.70045830	    121.05818402	     87.09560451	     -0.59290741	      0.10784199	      1.06309643	    -41.63186501	     -1.19405773	    -22.84711017	      2.98753829	     10.08313342	     17.18740961	      0.00000000	    -40.29656438	      0.02816226	    -13.01104988	      2.34899334	      7.70585574	     12.69784583	      0.00000000	    -37.38576515	     -2.49809348	     -0.03259253
      0.40000000	    -82.70480626	    121.06086054	     87.09769398	     -0.59283945	      0.10789840	      1.06309736	    -41.63727307	     -1.19776294	    -22.84674214	      2.98354207	     10.08230275	     17.18590484	      0.00000000	    -40.30339214	      0.03001269	    -13.01087684	      2.34412682	      7.70344621	     12.69811777	      0.00000000	    -37.37301406	     -2.50225218	     -0.03265966
      0.42000000	    -82.72061202	    121.06125378	     87.10078082	     -0.59272344	      0.10797606	      1.06308836	    -41.64484029	     -1.20375986	    -22.83802635	      2.98182547	     10.08284280	     17.18138888	      0.00000000	    -40.33182541	      0.04025683	    -13.02537630	      2.37971781	      7.69333220	     12.69356879	      0.00000000	    -37.35329583	     -2.50421676	     -0.03240842
